<svg width="14" height="14" viewBox="0 0 14 14" fill="none" xmlns="http://www.w3.org/2000/svg">
<rect width="1.9823" height="1.9823" transform="matrix(-4.37114e-08 -1 -1 4.37114e-08 7.92969 13.876)" fill="#1E1E1E"/>
<rect width="1.9823" height="1.9823" transform="matrix(-4.37114e-08 -1 -1 4.37114e-08 5.94727 11.8936)" fill="#1E1E1E"/>
<rect width="1.9823" height="1.9823" transform="matrix(-4.37114e-08 -1 -1 4.37114e-08 3.96484 9.91113)" fill="#1E1E1E"/>
<rect width="1.9823" height="1.9823" transform="matrix(-4.37114e-08 -1 -1 4.37114e-08 1.98242 7.92871)" fill="#1E1E1E"/>
<rect width="1.9823" height="1.9823" transform="matrix(-4.37114e-08 -1 -1 4.37114e-08 3.96484 5.94629)" fill="#1E1E1E"/>
<rect width="1.9823" height="1.9823" transform="matrix(-4.37114e-08 -1 -1 4.37114e-08 5.94727 3.96484)" fill="#1E1E1E"/>
<rect width="1.9823" height="1.9823" transform="matrix(-4.37114e-08 -1 -1 4.37114e-08 7.92969 1.98242)" fill="#1E1E1E"/>
<rect width="1.9823" height="1.9823" transform="matrix(-4.37114e-08 -1 -1 4.37114e-08 14 13.876)" fill="#1E1E1E"/>
<rect width="1.9823" height="1.9823" transform="matrix(-4.37114e-08 -1 -1 4.37114e-08 12.0176 11.8936)" fill="#1E1E1E"/>
<rect width="1.9823" height="1.9823" transform="matrix(-4.37114e-08 -1 -1 4.37114e-08 10.0352 9.91113)" fill="#1E1E1E"/>
<rect width="1.9823" height="1.9823" transform="matrix(-4.37114e-08 -1 -1 4.37114e-08 8.05273 7.92871)" fill="#1E1E1E"/>
<rect width="1.9823" height="1.9823" transform="matrix(-4.37114e-08 -1 -1 4.37114e-08 10.0352 5.94629)" fill="#1E1E1E"/>
<rect width="1.9823" height="1.9823" transform="matrix(-4.37114e-08 -1 -1 4.37114e-08 12.0176 3.96484)" fill="#1E1E1E"/>
<rect width="1.9823" height="1.9823" transform="matrix(-4.37114e-08 -1 -1 4.37114e-08 14 1.98242)" fill="#1E1E1E"/>
</svg>
