<svg width="14" height="14" viewBox="0 0 14 14" fill="none" xmlns="http://www.w3.org/2000/svg">
<rect x="6.07031" y="13.876" width="1.9823" height="1.9823" transform="rotate(-90 6.07031 13.876)" fill="#1E1E1E"/>
<rect x="8.05273" y="11.8936" width="1.9823" height="1.9823" transform="rotate(-90 8.05273 11.8936)" fill="#1E1E1E"/>
<rect x="10.0352" y="9.91113" width="1.9823" height="1.9823" transform="rotate(-90 10.0352 9.91113)" fill="#1E1E1E"/>
<rect x="12.0176" y="7.92871" width="1.9823" height="1.9823" transform="rotate(-90 12.0176 7.92871)" fill="#1E1E1E"/>
<rect x="10.0352" y="5.94629" width="1.9823" height="1.9823" transform="rotate(-90 10.0352 5.94629)" fill="#1E1E1E"/>
<rect x="8.05273" y="3.96484" width="1.9823" height="1.9823" transform="rotate(-90 8.05273 3.96484)" fill="#1E1E1E"/>
<rect x="6.07031" y="1.98242" width="1.9823" height="1.9823" transform="rotate(-90 6.07031 1.98242)" fill="#1E1E1E"/>
<rect y="13.876" width="1.9823" height="1.9823" transform="rotate(-90 0 13.876)" fill="#1E1E1E"/>
<rect x="1.98242" y="11.8936" width="1.9823" height="1.9823" transform="rotate(-90 1.98242 11.8936)" fill="#1E1E1E"/>
<rect x="3.96484" y="9.91113" width="1.9823" height="1.9823" transform="rotate(-90 3.96484 9.91113)" fill="#1E1E1E"/>
<rect x="5.94727" y="7.92871" width="1.9823" height="1.9823" transform="rotate(-90 5.94727 7.92871)" fill="#1E1E1E"/>
<rect x="3.96484" y="5.94629" width="1.9823" height="1.9823" transform="rotate(-90 3.96484 5.94629)" fill="#1E1E1E"/>
<rect x="1.98242" y="3.96484" width="1.9823" height="1.9823" transform="rotate(-90 1.98242 3.96484)" fill="#1E1E1E"/>
<rect y="1.98242" width="1.9823" height="1.9823" transform="rotate(-90 0 1.98242)" fill="#1E1E1E"/>
</svg>
