<svg width="36" height="36" viewBox="0 0 36 36" fill="none" xmlns="http://www.w3.org/2000/svg">
<path d="M7.82812 1.56543H12.5205V3.12988H17.2168V4.69629H21.915V6.26074H25.043V7.82617H26.6094V9.39258H28.1738V10.9561H29.7402V14.0879H31.3037V21.9131H32.8662V23.4785H34.4326V25.043H35.999V28.1729H34.4326V29.7383H32.8662V31.3037H31.3027V32.8691H29.7383V34.4346H28.1719V35.998H25.042V34.4346H23.4775V32.8691H21.9111V31.3037H14.0879V29.7383H10.9541V28.1729H9.3916V26.6084H7.8252V25.043H6.25879V21.9131H4.69824V17.2168H3.13086V12.5215H1.56641V7.82617H-0.000976562V0H7.82812V1.56543ZM6.26074 6.26074H7.8252V7.82617H9.38965V9.3916H7.82422V7.82617H6.25977V6.26074H4.69727V10.9561H6.26074V15.6523H7.8291V20.3477H9.38965V23.4785H10.9561V25.043H12.5215V26.6074H15.6494V28.1738H23.4785V29.7393H25.042V31.3037H28.1719V29.7393H29.7363V28.1738H31.3027V25.0439H29.7363V23.4785H28.1738V15.6523H26.6094V12.5225H25.0439V10.9561H23.4795V9.3916H20.3477V7.82617H15.6543V6.25977H10.9561V4.69629H6.26074V6.26074ZM15.6504 15.6523H17.2139V17.2168H17.2148V15.6523H20.3457V17.2168H21.9102V20.3477H20.3457V21.9131H17.2148V20.3477H15.6494V15.6523H14.085V14.0879H15.6504V15.6523ZM14.0879 14.0859H12.5225V12.5205H14.0879V14.0859ZM10.9551 10.9561H12.5195V12.5215H10.9541V10.957H9.39062V9.39258H10.9551V10.9561ZM4.69336 4.69531H3.13086V6.26074H4.69629V4.69629H6.25977V3.13086H4.69336V4.69531Z" fill="white"/>
</svg>
